<?xml version="1.0"?>
<svg xmlns="http://www.w3.org/2000/svg" xmlns:xlink="http://www.w3.org/1999/xlink" version="1.1" id="Capa_1" x="0px" y="0px" viewBox="0 0 512.001 512.001" style="enable-background:new 0 0 512.001 512.001;" xml:space="preserve" width="512px" height="512px" class=""><g><g>
	<g>
		<path d="M391.32,120.877c-40.962-40.962-107.553-40.957-148.508,0c-40.962,40.96-40.957,107.553,0,148.508    c39.57,39.57,108.909,39.6,148.508,0C432.28,228.425,432.278,161.832,391.32,120.877z" data-original="#000000" class="active-path" data-old_color="#000000" fill="#FFFFFF"/>
	</g>
</g><g>
	<g>
		<path d="M454.975,57.221c-76.034-76.034-199.769-76.034-275.803,0c-72.603,72.602-76.137,187.817-10.09,264.681l-21.738,21.738    l-10.614-10.614c-5.86-5.86-15.354-5.86-21.213,0L13.142,435.001c-17.522,17.551-17.522,46.104,0,63.654l0.014,0.015    c17.516,17.485,46.067,17.544,63.654-0.015L179.171,396.68c5.86-5.86,5.86-15.354,0-21.214l-10.614-10.614l21.738-21.738    c76.93,66.102,192.144,62.446,264.681-10.09C531.009,256.991,531.009,133.27,454.975,57.221z M412.532,290.599    c-52.632,52.631-138.281,52.654-190.935,0c-52.637-52.638-52.637-138.297,0-190.935c52.682-52.638,138.312-52.638,190.935,0    C465.17,152.301,465.17,237.96,412.532,290.599z" data-original="#000000" class="active-path" data-old_color="#000000" fill="#FFFFFF"/>
	</g>
</g></g> </svg>
