<?xml version="1.0"?>
<svg xmlns="http://www.w3.org/2000/svg" height="512px" viewBox="0 0 512 512" width="512px" class=""><g><path d="m437.019531 74.980469c-48.347656-48.351563-112.640625-74.980469-181.019531-74.980469s-132.671875 26.628906-181.019531 74.980469c-48.351563 48.347656-74.980469 112.640625-74.980469 181.019531s26.628906 132.671875 74.980469 181.019531c48.347656 48.351563 112.640625 74.980469 181.019531 74.980469s132.671875-26.628906 181.019531-74.980469c48.351563-48.347656 74.980469-112.640625 74.980469-181.019531s-26.628906-132.671875-74.980469-181.019531zm-14.308593 241.480469-30.132813 52.070312c-7.378906 12.757812-23.777344 17.160156-36.546875 9.796875l-42.101562-24.257813v48.78125c0 14.769532-12.007813 26.777344-26.78125 26.777344h-60.296876c-14.773437 0-26.78125-12.007812-26.78125-26.777344v-48.78125l-42.101562 24.257813c-12.769531 7.363281-29.167969 2.960937-36.546875-9.796875l-30.132813-52.070312c-3.578124-6.199219-4.539062-13.421876-2.679687-20.339844 1.851563-6.921875 6.289063-12.699219 12.5-16.269532l41.992187-24.203124-42-24.1875c-6.203124-3.582032-10.640624-9.359376-12.492187-16.28125-1.859375-6.917969-.898437-14.140626 2.679687-20.339844l30.132813-52.070313c7.378906-12.757812 23.777344-17.148437 36.546875-9.789062l42.101562 24.25v-48.082031c0-14.769532 12.007813-26.777344 26.78125-26.777344h60.296876c14.773437 0 26.78125 12.007812 26.78125 26.777344v48.082031l42.101562-24.25c12.769531-7.359375 29.167969-2.96875 36.546875 9.789062l30.132813 52.070313c3.578124 6.199218 4.539062 13.421875 2.679687 20.339844-1.851563 6.921874-6.289063 12.699218-12.5 16.28125l-41.992187 24.1875 42 24.203124c6.203124 3.570313 10.640624 9.347657 12.5 16.269532 1.851562 6.917968.890624 14.140625-2.6875 20.339844zm0 0" data-original="#000000" class="active-path" data-old_color="#000000" fill="#FFFFFF"/><path d="m337.671875 255.648438c0-9.6875 5.019531-18.367188 13.40625-23.199219l44.042969-25.378907-26.902344-46.5-44.140625 25.441407c-8.378906 4.828125-18.386719 4.816406-26.769531-.023438-8.378906-4.839843-13.378906-13.507812-13.378906-23.1875v-50.429687h-53.859376v50.429687c0 9.679688-5 18.347657-13.378906 23.1875-8.382812 4.839844-18.390625 4.851563-26.769531.023438l-44.140625-25.441407-26.910156 46.5 44.050781 25.378907c8.386719 4.832031 13.40625 13.511719 13.40625 23.199219 0 9.691406-5.019531 18.371093-13.40625 23.210937l-44.042969 25.371094 26.902344 46.5 44.140625-25.429688c8.378906-4.832031 18.386719-4.832031 26.769531.007813 8.378906 4.851562 13.378906 13.511718 13.378906 23.191406v51.128906h53.859376v-51.128906c0-9.679688 5-18.339844 13.378906-23.191406 8.382812-4.839844 18.390625-4.847656 26.769531-.007813l44.140625 25.429688 26.910156-46.5-44.050781-25.371094c-8.386719-4.839844-13.40625-13.519531-13.40625-23.210937zm0 0" data-original="#000000" class="active-path" data-old_color="#000000" fill="#FFFFFF"/></g> </svg>
